<mxfile host="65bd71144e">
    <diagram id="BEtxwHm3tSfv6J6Lbkbr" name="Page-1">
        <mxGraphModel dx="887" dy="509" grid="0" gridSize="10" guides="1" tooltips="1" connect="1" arrows="1" fold="1" page="0" pageScale="1" pageWidth="850" pageHeight="1100" background="#ffffff" math="0" shadow="0">
            <root>
                <mxCell id="0"/>
                <mxCell id="1" parent="0"/>
                <mxCell id="60" style="edgeStyle=none;html=1;entryX=0.5;entryY=0;entryDx=0;entryDy=0;" parent="1" source="55" target="49" edge="1">
                    <mxGeometry relative="1" as="geometry"/>
                </mxCell>
                <mxCell id="48" style="edgeStyle=none;html=1;exitX=0;exitY=0.5;exitDx=0;exitDy=0;entryX=0.75;entryY=0;entryDx=0;entryDy=0;" parent="1" source="25" target="47" edge="1">
                    <mxGeometry relative="1" as="geometry"/>
                </mxCell>
                <mxCell id="9" value="" style="edgeStyle=none;html=1;" parent="1" source="3" target="7" edge="1">
                    <mxGeometry relative="1" as="geometry"/>
                </mxCell>
                <mxCell id="3" value="GET /api/v1/data1" style="rounded=0;whiteSpace=wrap;html=1;fillColor=#f8cecc;strokeColor=#b85450;" parent="1" vertex="1">
                    <mxGeometry x="263.5" y="111" width="120" height="30" as="geometry"/>
                </mxCell>
                <mxCell id="34" style="edgeStyle=none;html=1;" parent="1" source="4" target="33" edge="1">
                    <mxGeometry relative="1" as="geometry"/>
                </mxCell>
                <mxCell id="101" style="edgeStyle=none;html=1;exitX=0.5;exitY=1;exitDx=0;exitDy=0;entryX=0.5;entryY=0;entryDx=0;entryDy=0;" parent="1" source="4" target="22" edge="1">
                    <mxGeometry relative="1" as="geometry"/>
                </mxCell>
                <mxCell id="4" value="publish_data" style="rounded=0;whiteSpace=wrap;html=1;" parent="1" vertex="1">
                    <mxGeometry x="273.5" y="301" width="100" height="30" as="geometry"/>
                </mxCell>
                <mxCell id="8" value="" style="edgeStyle=none;html=1;" parent="1" source="7" target="4" edge="1">
                    <mxGeometry relative="1" as="geometry"/>
                </mxCell>
                <mxCell id="7" value="get_api_data" style="rounded=0;whiteSpace=wrap;html=1;" parent="1" vertex="1">
                    <mxGeometry x="273.5" y="231" width="100" height="30" as="geometry"/>
                </mxCell>
                <mxCell id="12" value="Container get_data" style="swimlane;fillColor=#f8cecc;strokeColor=#b85450;swimlaneFillColor=none;startSize=23;" parent="1" vertex="1">
                    <mxGeometry x="253.5" y="191" width="261" height="159" as="geometry"/>
                </mxCell>
                <mxCell id="33" value="sqlite3" style="shape=cylinder3;whiteSpace=wrap;html=1;boundedLbl=1;backgroundOutline=1;size=15;fillColor=#ffe6cc;strokeColor=#d79b00;" parent="12" vertex="1">
                    <mxGeometry x="193" y="91" width="62" height="59" as="geometry"/>
                </mxCell>
                <mxCell id="35" style="edgeStyle=none;html=1;entryX=0.5;entryY=0;entryDx=0;entryDy=0;" parent="1" source="22" target="37" edge="1">
                    <mxGeometry relative="1" as="geometry">
                        <mxPoint x="319.5" y="659" as="targetPoint"/>
                    </mxGeometry>
                </mxCell>
                <mxCell id="22" value="rabbitMQ - Pub/Sub" style="swimlane;fontStyle=0;childLayout=stackLayout;horizontal=1;startSize=26;fillColor=none;horizontalStack=0;resizeParent=1;resizeParentMax=0;resizeLast=0;collapsible=1;marginBottom=0;" parent="1" vertex="1">
                    <mxGeometry x="254.5" y="418" width="112.5" height="103" as="geometry"/>
                </mxCell>
                <mxCell id="23" value="10:10, data" style="text;strokeColor=none;fillColor=none;align=left;verticalAlign=top;spacingLeft=4;spacingRight=4;overflow=hidden;rotatable=0;points=[[0,0.5],[1,0.5]];portConstraint=eastwest;" parent="22" vertex="1">
                    <mxGeometry y="26" width="112.5" height="26" as="geometry"/>
                </mxCell>
                <mxCell id="24" value="10:11, data&#10;" style="text;strokeColor=none;fillColor=none;align=left;verticalAlign=top;spacingLeft=4;spacingRight=4;overflow=hidden;rotatable=0;points=[[0,0.5],[1,0.5]];portConstraint=eastwest;" parent="22" vertex="1">
                    <mxGeometry y="52" width="112.5" height="26" as="geometry"/>
                </mxCell>
                <mxCell id="25" value="10:12, data" style="text;strokeColor=none;fillColor=none;align=left;verticalAlign=top;spacingLeft=4;spacingRight=4;overflow=hidden;rotatable=0;points=[[0,0.5],[1,0.5]];portConstraint=eastwest;" parent="22" vertex="1">
                    <mxGeometry y="78" width="112.5" height="25" as="geometry"/>
                </mxCell>
                <mxCell id="27" value="Container visualize_data" style="swimlane;fillColor=#f8cecc;strokeColor=#b85450;swimlaneFillColor=none;" parent="1" vertex="1">
                    <mxGeometry x="412.5" y="625" width="309" height="202" as="geometry"/>
                </mxCell>
                <mxCell id="41" style="edgeStyle=none;html=1;exitX=0;exitY=0.5;exitDx=0;exitDy=0;exitPerimeter=0;entryX=1;entryY=0.5;entryDx=0;entryDy=0;" parent="27" source="31" target="36" edge="1">
                    <mxGeometry relative="1" as="geometry"/>
                </mxCell>
                <mxCell id="31" value="sqlite3" style="shape=cylinder3;whiteSpace=wrap;html=1;boundedLbl=1;backgroundOutline=1;size=15;fillColor=#ffe6cc;strokeColor=#d79b00;" parent="27" vertex="1">
                    <mxGeometry x="207" y="96" width="65" height="61" as="geometry"/>
                </mxCell>
                <mxCell id="36" value="visualize_data" style="rounded=0;whiteSpace=wrap;html=1;" parent="27" vertex="1">
                    <mxGeometry x="34" y="139" width="100" height="30" as="geometry"/>
                </mxCell>
                <mxCell id="40" style="edgeStyle=none;html=1;entryX=0;entryY=0;entryDx=0;entryDy=22.75;entryPerimeter=0;" parent="27" source="37" target="31" edge="1">
                    <mxGeometry relative="1" as="geometry"/>
                </mxCell>
                <mxCell id="37" value="save_event_to_db" style="rounded=0;whiteSpace=wrap;html=1;" parent="27" vertex="1">
                    <mxGeometry x="34" y="58" width="116" height="30" as="geometry"/>
                </mxCell>
                <mxCell id="42" value="Container process_data" style="swimlane;fillColor=#f8cecc;strokeColor=#b85450;swimlaneFillColor=none;startSize=23;" parent="1" vertex="1">
                    <mxGeometry x="-16.5" y="616" width="309" height="206" as="geometry"/>
                </mxCell>
                <mxCell id="43" style="edgeStyle=none;html=1;exitX=0;exitY=0.5;exitDx=0;exitDy=0;exitPerimeter=0;entryX=1;entryY=0.5;entryDx=0;entryDy=0;" parent="42" source="44" target="45" edge="1">
                    <mxGeometry relative="1" as="geometry"/>
                </mxCell>
                <mxCell id="44" value="sqlite3" style="shape=cylinder3;whiteSpace=wrap;html=1;boundedLbl=1;backgroundOutline=1;size=15;fillColor=#ffe6cc;strokeColor=#d79b00;" parent="42" vertex="1">
                    <mxGeometry x="207" y="96" width="65" height="61" as="geometry"/>
                </mxCell>
                <mxCell id="45" value="process_data" style="rounded=0;whiteSpace=wrap;html=1;" parent="42" vertex="1">
                    <mxGeometry x="34" y="139" width="100" height="30" as="geometry"/>
                </mxCell>
                <mxCell id="46" style="edgeStyle=none;html=1;entryX=0;entryY=0;entryDx=0;entryDy=22.75;entryPerimeter=0;" parent="42" source="47" target="44" edge="1">
                    <mxGeometry relative="1" as="geometry"/>
                </mxCell>
                <mxCell id="47" value="save_event_to_db" style="rounded=0;whiteSpace=wrap;html=1;" parent="42" vertex="1">
                    <mxGeometry x="34" y="58" width="116" height="30" as="geometry"/>
                </mxCell>
                <mxCell id="49" value="Container data_based_action" style="swimlane;fillColor=#fff2cc;strokeColor=#d6b656;swimlaneFillColor=none;startSize=23;" parent="1" vertex="1">
                    <mxGeometry x="564" y="1071" width="309" height="203" as="geometry"/>
                </mxCell>
                <mxCell id="51" value="event.log" style="shape=cylinder3;whiteSpace=wrap;html=1;boundedLbl=1;backgroundOutline=1;size=15;fillColor=#ffe6cc;strokeColor=#d79b00;" parent="49" vertex="1">
                    <mxGeometry x="208" y="42.5" width="65" height="61" as="geometry"/>
                </mxCell>
                <mxCell id="105" style="edgeStyle=none;html=1;entryX=0;entryY=0;entryDx=0;entryDy=38.25;entryPerimeter=0;" parent="49" source="54" target="51" edge="1">
                    <mxGeometry relative="1" as="geometry"/>
                </mxCell>
                <mxCell id="108" style="edgeStyle=none;html=1;exitX=0.5;exitY=1;exitDx=0;exitDy=0;entryX=0.5;entryY=0;entryDx=0;entryDy=0;" parent="49" source="54" target="107" edge="1">
                    <mxGeometry relative="1" as="geometry"/>
                </mxCell>
                <mxCell id="54" value="get_events" style="rounded=0;whiteSpace=wrap;html=1;" parent="49" vertex="1">
                    <mxGeometry x="51" y="68" width="116" height="30" as="geometry"/>
                </mxCell>
                <mxCell id="107" value="process_data" style="rounded=0;whiteSpace=wrap;html=1;" parent="49" vertex="1">
                    <mxGeometry x="101" y="155" width="100" height="30" as="geometry"/>
                </mxCell>
                <mxCell id="55" value="rabbitMQ - Pub/Sub" style="swimlane;fontStyle=0;childLayout=stackLayout;horizontal=1;startSize=20;fillColor=none;horizontalStack=0;resizeParent=1;resizeParentMax=0;resizeLast=0;collapsible=1;marginBottom=0;" parent="1" vertex="1">
                    <mxGeometry x="-26" y="853" width="187" height="46" as="geometry"/>
                </mxCell>
                <mxCell id="56" value="10:10 -  data" style="text;strokeColor=none;fillColor=none;align=left;verticalAlign=top;spacingLeft=4;spacingRight=4;overflow=hidden;rotatable=0;points=[[0,0.5],[1,0.5]];portConstraint=eastwest;" parent="55" vertex="1">
                    <mxGeometry y="20" width="187" height="26" as="geometry"/>
                </mxCell>
                <mxCell id="59" style="edgeStyle=none;html=1;" parent="1" source="45" target="55" edge="1">
                    <mxGeometry relative="1" as="geometry"/>
                </mxCell>
                <mxCell id="61" style="edgeStyle=none;html=1;entryX=0.5;entryY=0;entryDx=0;entryDy=0;" parent="1" source="95" target="49" edge="1">
                    <mxGeometry relative="1" as="geometry">
                        <mxPoint x="1052.7026578073092" y="998" as="targetPoint"/>
                    </mxGeometry>
                </mxCell>
                <mxCell id="62" style="edgeStyle=none;html=1;exitX=0;exitY=0.5;exitDx=0;exitDy=0;entryX=0.75;entryY=0;entryDx=0;entryDy=0;" parent="1" source="76" target="88" edge="1">
                    <mxGeometry relative="1" as="geometry"/>
                </mxCell>
                <mxCell id="63" value="" style="edgeStyle=none;html=1;" parent="1" source="64" target="69" edge="1">
                    <mxGeometry relative="1" as="geometry"/>
                </mxCell>
                <mxCell id="64" value="GET /api/v1/data2" style="rounded=0;whiteSpace=wrap;html=1;fillColor=#dae8fc;strokeColor=#6c8ebf;" parent="1" vertex="1">
                    <mxGeometry x="1232.5" y="114" width="120" height="30" as="geometry"/>
                </mxCell>
                <mxCell id="66" style="edgeStyle=none;html=1;" parent="1" source="67" target="71" edge="1">
                    <mxGeometry relative="1" as="geometry"/>
                </mxCell>
                <mxCell id="100" style="edgeStyle=none;html=1;exitX=0.5;exitY=1;exitDx=0;exitDy=0;entryX=0.5;entryY=0;entryDx=0;entryDy=0;" parent="1" source="67" target="73" edge="1">
                    <mxGeometry relative="1" as="geometry"/>
                </mxCell>
                <mxCell id="67" value="publish_data" style="rounded=0;whiteSpace=wrap;html=1;" parent="1" vertex="1">
                    <mxGeometry x="1242.5" y="304" width="100" height="30" as="geometry"/>
                </mxCell>
                <mxCell id="68" value="" style="edgeStyle=none;html=1;" parent="1" source="69" target="67" edge="1">
                    <mxGeometry relative="1" as="geometry"/>
                </mxCell>
                <mxCell id="69" value="get_api_data" style="rounded=0;whiteSpace=wrap;html=1;" parent="1" vertex="1">
                    <mxGeometry x="1242.5" y="234" width="100" height="30" as="geometry"/>
                </mxCell>
                <mxCell id="70" value="Container get_data" style="swimlane;fillColor=#dae8fc;strokeColor=#6c8ebf;swimlaneFillColor=none;startSize=23;" parent="1" vertex="1">
                    <mxGeometry x="1222.5" y="194" width="261" height="159" as="geometry"/>
                </mxCell>
                <mxCell id="71" value="mongodb" style="shape=cylinder3;whiteSpace=wrap;html=1;boundedLbl=1;backgroundOutline=1;size=15;fillColor=#dae8fc;strokeColor=#6c8ebf;" parent="70" vertex="1">
                    <mxGeometry x="193" y="91" width="62" height="59" as="geometry"/>
                </mxCell>
                <mxCell id="72" style="edgeStyle=none;html=1;entryX=0.5;entryY=0;entryDx=0;entryDy=0;" parent="1" source="73" target="82" edge="1">
                    <mxGeometry relative="1" as="geometry">
                        <mxPoint x="1288.5" y="662" as="targetPoint"/>
                    </mxGeometry>
                </mxCell>
                <mxCell id="73" value="rabbitMQ - Pub/Sub" style="swimlane;fontStyle=0;childLayout=stackLayout;horizontal=1;startSize=26;fillColor=none;horizontalStack=0;resizeParent=1;resizeParentMax=0;resizeLast=0;collapsible=1;marginBottom=0;" parent="1" vertex="1">
                    <mxGeometry x="1225.5" y="416" width="127" height="103" as="geometry"/>
                </mxCell>
                <mxCell id="74" value="10:10, data" style="text;strokeColor=none;fillColor=none;align=left;verticalAlign=top;spacingLeft=4;spacingRight=4;overflow=hidden;rotatable=0;points=[[0,0.5],[1,0.5]];portConstraint=eastwest;" parent="73" vertex="1">
                    <mxGeometry y="26" width="127" height="26" as="geometry"/>
                </mxCell>
                <mxCell id="75" value="10:11, data&#10;" style="text;strokeColor=none;fillColor=none;align=left;verticalAlign=top;spacingLeft=4;spacingRight=4;overflow=hidden;rotatable=0;points=[[0,0.5],[1,0.5]];portConstraint=eastwest;" parent="73" vertex="1">
                    <mxGeometry y="52" width="127" height="26" as="geometry"/>
                </mxCell>
                <mxCell id="76" value="10:12, data" style="text;strokeColor=none;fillColor=none;align=left;verticalAlign=top;spacingLeft=4;spacingRight=4;overflow=hidden;rotatable=0;points=[[0,0.5],[1,0.5]];portConstraint=eastwest;" parent="73" vertex="1">
                    <mxGeometry y="78" width="127" height="25" as="geometry"/>
                </mxCell>
                <mxCell id="77" value="Container visualize_data" style="swimlane;fillColor=#dae8fc;strokeColor=#6c8ebf;swimlaneFillColor=none;" parent="1" vertex="1">
                    <mxGeometry x="1352.5" y="623" width="309" height="202" as="geometry"/>
                </mxCell>
                <mxCell id="78" style="edgeStyle=none;html=1;exitX=0;exitY=0.5;exitDx=0;exitDy=0;exitPerimeter=0;entryX=1;entryY=0.5;entryDx=0;entryDy=0;" parent="77" source="79" target="80" edge="1">
                    <mxGeometry relative="1" as="geometry"/>
                </mxCell>
                <mxCell id="79" value="mongodb" style="shape=cylinder3;whiteSpace=wrap;html=1;boundedLbl=1;backgroundOutline=1;size=15;fillColor=#dae8fc;strokeColor=#6c8ebf;" parent="77" vertex="1">
                    <mxGeometry x="207" y="96" width="65" height="61" as="geometry"/>
                </mxCell>
                <mxCell id="80" value="visualize_data" style="rounded=0;whiteSpace=wrap;html=1;" parent="77" vertex="1">
                    <mxGeometry x="34" y="139" width="100" height="30" as="geometry"/>
                </mxCell>
                <mxCell id="81" style="edgeStyle=none;html=1;entryX=0;entryY=0;entryDx=0;entryDy=22.75;entryPerimeter=0;" parent="77" source="82" target="79" edge="1">
                    <mxGeometry relative="1" as="geometry"/>
                </mxCell>
                <mxCell id="82" value="save_event_to_db" style="rounded=0;whiteSpace=wrap;html=1;" parent="77" vertex="1">
                    <mxGeometry x="34" y="58" width="116" height="30" as="geometry"/>
                </mxCell>
                <mxCell id="83" value="Container process_data" style="swimlane;fillColor=#dae8fc;strokeColor=#6c8ebf;swimlaneFillColor=none;startSize=23;" parent="1" vertex="1">
                    <mxGeometry x="952.5" y="619" width="309" height="206" as="geometry"/>
                </mxCell>
                <mxCell id="84" style="edgeStyle=none;html=1;exitX=0;exitY=0.5;exitDx=0;exitDy=0;exitPerimeter=0;entryX=1;entryY=0.5;entryDx=0;entryDy=0;" parent="83" source="85" target="86" edge="1">
                    <mxGeometry relative="1" as="geometry"/>
                </mxCell>
                <mxCell id="85" value="mongodb" style="shape=cylinder3;whiteSpace=wrap;html=1;boundedLbl=1;backgroundOutline=1;size=15;fillColor=#dae8fc;strokeColor=#6c8ebf;" parent="83" vertex="1">
                    <mxGeometry x="207" y="96" width="65" height="61" as="geometry"/>
                </mxCell>
                <mxCell id="86" value="process_data" style="rounded=0;whiteSpace=wrap;html=1;" parent="83" vertex="1">
                    <mxGeometry x="34" y="139" width="100" height="30" as="geometry"/>
                </mxCell>
                <mxCell id="87" style="edgeStyle=none;html=1;entryX=0;entryY=0;entryDx=0;entryDy=22.75;entryPerimeter=0;" parent="83" source="88" target="85" edge="1">
                    <mxGeometry relative="1" as="geometry"/>
                </mxCell>
                <mxCell id="88" value="save_event_to_db" style="rounded=0;whiteSpace=wrap;html=1;" parent="83" vertex="1">
                    <mxGeometry x="34" y="58" width="116" height="30" as="geometry"/>
                </mxCell>
                <mxCell id="95" value="rabbitMQ PubSub" style="swimlane;fontStyle=0;childLayout=stackLayout;horizontal=1;startSize=21;fillColor=none;horizontalStack=0;resizeParent=1;resizeParentMax=0;resizeLast=0;collapsible=1;marginBottom=0;" parent="1" vertex="1">
                    <mxGeometry x="943" y="856" width="187" height="47" as="geometry"/>
                </mxCell>
                <mxCell id="96" value="10:10 -  data" style="text;strokeColor=none;fillColor=none;align=left;verticalAlign=top;spacingLeft=4;spacingRight=4;overflow=hidden;rotatable=0;points=[[0,0.5],[1,0.5]];portConstraint=eastwest;" parent="95" vertex="1">
                    <mxGeometry y="21" width="187" height="26" as="geometry"/>
                </mxCell>
                <mxCell id="97" style="edgeStyle=none;html=1;" parent="1" source="86" target="95" edge="1">
                    <mxGeometry relative="1" as="geometry"/>
                </mxCell>
                <mxCell id="109" value="POST /api/v1" style="rounded=0;whiteSpace=wrap;html=1;fillColor=#fff2cc;strokeColor=#d6b656;" parent="1" vertex="1">
                    <mxGeometry x="655" y="1340" width="120" height="30" as="geometry"/>
                </mxCell>
                <mxCell id="110" style="edgeStyle=none;html=1;" parent="1" source="107" target="109" edge="1">
                    <mxGeometry relative="1" as="geometry"/>
                </mxCell>
            </root>
        </mxGraphModel>
    </diagram>
</mxfile>